<?xml version="1.0" encoding="utf-8"?>
<!DOCTYPE svg PUBLIC "-//W3C//DTD SVG 1.1//EN" "http://www.w3.org/Graphics/SVG/1.1/DTD/svg11.dtd">
<svg xmlns="http://www.w3.org/2000/svg" xmlns:xlink="http://www.w3.org/1999/xlink" version="1.1" baseProfile="full" width="81.92" height="81.92" viewBox="0 0 81.92 81.92" enable-background="new 0 0 81.92 81.92" xml:space="preserve">
	<rect x="0" y="0" fill="#FF2D06" fill-opacity="1" stroke-width="0.2" stroke-linejoin="round" width="81.92" height="81.92"/>
	<path fill="#000000" fill-opacity="1" stroke-width="0.64" stroke-linejoin="round" stroke="#FFFFFF" stroke-opacity="1" d="M 10.9126,9.60554C 13.562,10.4887 17.9778,12.255 24.6015,12.255C 31.2252,12.255 40.0568,10.4887 46.4597,11.5926C 52.8626,12.6966 56.8368,16.6708 56.3952,23.5153C 55.9537,30.3598 51.0963,40.0745 48.4468,40.2953C 45.7973,40.5161 45.3558,31.2429 42.2647,29.035C 39.1736,26.8271 33.4331,31.6845 36.9658,36.9835C 40.4984,42.2824 53.3042,48.0229 60.3695,45.815C 67.4347,43.6071 68.7595,33.4508 67.4347,26.1648C 66.11,18.8787 62.1358,14.4629 62.3566,11.5926C 62.5774,8.72237 66.9931,7.39764 69.8634,10.0471C 72.7337,12.6966 74.0584,19.3203 74.2792,26.6063C 74.5,33.8924 73.6168,41.8408 71.1882,46.6982C 68.7595,51.5556 64.7853,53.3219 63.9021,55.309C 63.0189,57.2961 65.2268,59.504 67.8763,61.4911C 70.5258,63.4782 73.6168,65.2445 74.5,67.4524C 75.3832,69.6603 74.0584,72.3098 70.9674,72.9722C 67.8763,73.6345 63.0189,72.3098 59.4863,69.8811C 55.9537,67.4524 53.7458,63.9198 52.8626,60.608C 51.9795,57.2961 52.421,54.205 49.33,52.4387C 46.2389,50.6724 39.6152,50.2308 37.4073,51.9972C 35.1994,53.7635 37.4073,57.7377 40.4984,60.608C 43.5894,63.4782 47.5637,65.2445 49.5508,67.4524C 51.5379,69.6603 51.5379,72.3098 48.226,73.193C 44.9142,74.0761 38.2905,73.193 33.2123,68.998C 28.1342,64.803 24.6015,57.2961 24.3807,50.6724C 24.16,44.0487 27.251,38.3082 27.6926,34.5548C 28.1342,30.8013 25.9263,29.035 23.4976,31.6845C 21.0689,34.334 18.4194,41.3993 17.7571,48.0229C 17.0947,54.6466 18.4194,60.8287 21.0689,64.5822C 23.7184,68.3356 27.6926,69.6603 28.1342,70.7643C 28.5757,71.8682 25.4847,72.7514 22.1728,73.193C 18.861,73.6345 15.3284,73.6345 13.1205,70.5435C 10.9126,67.4524 10.0294,61.2703 9.14625,56.6337C 8.26309,51.9972 7.37994,48.9061 8.48388,43.6071C 9.58783,38.3082 12.6789,30.8013 16.6531,27.0479C 20.6273,23.2945 25.4847,23.2945 27.9134,22.4113C 30.3421,21.5282 30.3421,19.7619 27.9134,19.0995C 25.4847,18.4371 20.6273,18.8787 17.3155,20.645C 14.0036,22.4113 12.2373,25.5024 10.471,25.5024C 8.70467,25.5024 6.93836,22.4113 6.27599,19.0995C 5.61362,15.7876 6.0552,12.255 6.71757,10.4887C 7.37994,8.72237 8.26309,8.72237 10.9126,9.60554 Z "/>
</svg>
